<svg width="48" height="50" viewBox="0 0 48 50" fill="none" xmlns="http://www.w3.org/2000/svg">
<path d="M19.7409 19.375C18.3844 20.4235 16.9748 20.8247 16.9748 20.8247C15.8418 21.1457 14.613 21.1404 14.5598 21.1404C13.8576 21.1297 13.4693 21.0387 13.0012 21.2955C12.2937 21.6914 12.1129 22.5099 12.1076 22.5473C12.0278 22.9378 12.065 23.446 12.8097 24.6604C13.4959 25.7838 14.2672 26.6611 15.0279 27.3994C15.6769 28.0253 16.4003 28.726 17.5174 29.3947C17.8844 29.6141 18.2089 29.7799 20.2409 30.6091C22.842 31.663 24.0549 32.1337 24.0549 32.1337C26.4273 33.0539 26.7465 33.1341 27.2837 33.6209C28.2519 34.4875 28.704 35.5521 28.8795 35.9694C29.321 37.0232 29.3955 37.9166 29.4274 38.2429C29.7891 42.0304 31.9382 47.8668 30.9381 48.926C30.5711 49.3112 30.2413 49.7338 29.5019 49.7071C27.3688 49.6322 25.2358 49.4556 23.1133 49.2363C18.294 48.7388 13.7087 47.5084 9.66596 44.6785C3.60187 40.4363 0.575149 34.541 0.0857669 27.18C-0.286589 21.5576 0.495359 16.1974 3.5806 11.4148C7.77226 4.92582 13.7459 1.08483 21.4484 0.271693C29.1561 -0.546791 36.6139 0.42683 43.6248 3.97359C44.593 4.46575 45.6941 4.69044 46.6675 5.1719C46.9601 5.31634 47.2473 5.97968 47.1622 6.30066C46.0345 10.4519 43.2578 13.6884 41.0609 17.2459C41.0343 17.2833 40.5822 17.8397 39.8268 18.3532C38.7683 19.0808 38.1672 19.0005 38.0342 18.9738C37.6671 18.9096 37.4225 18.7224 37.332 18.6582C36.0235 17.7006 32.8052 16.6949 32.1563 16.5076C29.4062 15.7052 26.9539 16.1867 26.1613 16.3525C26.1613 16.3525 24.0336 16.7965 22.0761 17.8771C22.0388 17.8985 21.6984 18.0858 21.2516 18.3532C20.9803 18.5137 20.7834 18.6314 20.5547 18.7812C20.1292 19.0594 19.8366 19.2894 19.7355 19.3697L19.7409 19.375Z" fill="#D0B3A5" fill-opacity="0.82"/>
<path d="M32.0233 28.1482C32.5393 27.4742 32.9968 26.9392 33.3851 26.3507C33.784 25.7462 34.2309 24.8208 34.2628 23.6278C34.3106 22.0818 33.5606 20.9209 33.2042 20.4448C33.4329 20.5144 34.7787 20.9584 35.4224 22.3493C36.0128 23.6278 35.5926 24.8208 35.4596 25.1952C34.683 27.41 32.2893 28.0787 32.0233 28.1482Z" fill="#D0B3A5" fill-opacity="0.82"/>
<path d="M25.0499 19.9954C24.752 19.423 23.9753 19.1449 23.3796 19.3053C22.204 19.621 21.7306 21.6378 22.3636 22.269C22.7519 22.6595 23.5498 22.5044 24.0179 22.2583C24.8052 21.8517 25.4594 20.7872 25.0499 19.9954Z" fill="#D0B3A5" fill-opacity="0.82"/>
</svg>
