<svg width="50" height="40" viewBox="0 0 50 40" fill="none" xmlns="http://www.w3.org/2000/svg">
<path d="M40.1002 9.11221C40.0995 8.23826 40.0988 7.36431 40.098 6.49036C40.9136 7.61338 40.9136 7.78139 40.1002 9.11221Z" fill="#856756"/>
<path d="M39.726 9.86989C39.6957 11.4439 39.5959 13.0208 39.6521 14.5911C39.7274 16.7053 39.4356 18.658 37.8192 20.2026C36.2893 21.6255 34.8657 23.2091 32.6598 23.6158L32.6613 23.6107C31.4098 23.674 30.0912 23.2474 28.9498 24.1162C27.7131 24.1302 26.4757 24.1434 25.239 24.1574C21.4278 24.1685 17.6173 24.1795 13.8061 24.1906H13.8076C13.4057 23.8207 13.0038 23.4508 12.6027 23.0801C12.4062 22.3137 12.2104 21.5466 12.0146 20.7803C11.1119 19.5703 10.2084 18.3611 9.30563 17.1511C9.27977 13.7946 9.23397 10.438 9.25392 7.0815C9.25613 6.69537 9.62329 6.31219 9.82202 5.92754C9.82202 7.24509 9.82202 8.56192 9.82202 9.87947C10.4603 9.04826 10.7299 8.18905 10.8533 7.30994C10.956 6.57674 10.5704 6.07344 9.78656 5.95849C10.2483 4.72935 11.3298 4.12068 12.3825 3.57686C14.1925 2.64175 16.0733 1.84222 17.9246 0.985958L18.1647 1.02133L18.328 0.802472C19.5159 0.54014 20.7038 0.277807 21.8917 0.0154747C23.3596 0.0103164 24.8283 0.00515822 26.2962 0C27.0977 0.0781102 27.8985 0.156957 28.7001 0.235068C29.0554 0.362549 29.4108 0.489294 29.7661 0.616776C30.3505 0.68457 30.9348 0.753101 31.5192 0.820895C31.8745 0.913006 32.2306 1.00585 32.5859 1.09796C35.6554 2.13698 38.3068 3.75445 40.1234 6.52589C38.6134 7.15298 38.4102 7.46763 38.4043 8.8692C38.3999 9.84263 39.1025 9.78147 39.7282 9.86989H39.726ZM13.2942 8.71666C13.4641 9.35407 13.6273 10.3982 14.0226 11.3466C14.6113 12.76 16.1066 13.1579 17.3019 12.2272C18.1182 11.592 18.8769 10.8404 19.5078 10.0224C20.6787 8.50517 20.2953 6.05281 18.7461 4.95411C18.3118 4.64609 17.7119 4.42723 17.1837 4.41912C15.421 4.39039 13.3267 6.55389 13.2934 8.71666H13.2942ZM32.6398 8.41527C32.764 4.95705 30.4546 3.37937 27.4331 4.66893C27.0039 4.85242 26.5813 5.08454 26.2134 5.36897C25.0965 6.23261 24.9421 7.17656 25.8057 8.28779C26.4402 9.10427 27.1783 9.84263 27.8956 10.5913C28.6964 11.4269 29.6124 12.2073 30.8462 11.788C32.0666 11.3739 32.3163 10.1669 32.5852 9.06079C32.6509 8.79035 32.6339 8.49928 32.6398 8.41454V8.41527ZM22.8012 10.4977C21.6221 10.4889 20.7193 11.1521 20.811 11.9604C20.8885 12.6458 21.6487 13.2397 22.4266 13.222C23.4084 13.1999 24.4131 12.4144 24.4537 11.6377C24.4855 11.0209 23.7379 10.5044 22.8012 10.497V10.4977Z" fill="#856756"/>
<path d="M42.4235 20.3226C42.2329 20.0941 42.0415 19.8649 41.8509 19.6365C41.8369 19.2563 41.8229 18.876 41.8088 18.4958C44.3169 15.4348 44.5659 15.4451 47.1441 18.2607C49.0161 20.3049 50.2254 22.5509 49.9041 25.4321C49.8213 26.1764 49.9388 26.945 49.9846 27.701C50.1545 30.5226 48.9097 32.7288 46.6698 34.2284C44.7978 35.4818 42.6732 36.3587 40.6608 37.4029C40.0669 37.5532 39.4736 37.7043 38.8797 37.8546C38.5236 37.8804 38.1675 37.9069 37.8114 37.9327C36.984 37.9069 36.1182 37.6969 35.4497 38.4264C34.5188 38.6475 33.588 38.8693 32.6572 39.0904C27.8967 39.0594 23.1361 39.0278 18.3756 38.9968L18.154 38.9349L17.9279 38.9806C17.1279 38.8236 16.3285 38.6659 15.5285 38.509C15.1318 38.3063 14.7358 38.1037 14.3391 37.901C13.7444 37.0831 12.9007 37.3108 12.097 37.372C10.0137 37.3882 8.29536 36.3477 6.54895 35.4214C6.1515 35.2107 5.73263 34.8481 5.5568 34.4524C5.06996 33.3559 4.15761 32.7708 3.28736 32.0332C2.39642 31.2786 1.73746 30.132 1.25948 29.0348C-0.179606 25.7321 -0.527558 22.3321 0.966198 18.9343C1.64068 17.3993 3.72174 17.0228 5.90032 17.9446C6.05989 18.0942 6.21946 18.2438 6.37829 18.3934C6.50314 19.5348 6.4204 20.5753 5.83088 21.6659C4.77373 23.6231 4.98205 25.6694 6.02517 27.6207C7.32981 30.062 9.28307 31.7127 11.981 32.4547C12.9798 32.7296 13.9704 33.0354 14.9648 33.3264C15.1163 33.4016 15.2677 33.476 15.4191 33.5512C16.2473 33.5689 17.0762 33.5873 17.9043 33.605C18.4163 33.6205 18.9282 33.6367 19.4402 33.6521C20.8246 33.9218 22.1994 34.2785 23.5964 34.4288C24.5206 34.5283 25.4765 34.3323 26.4177 34.2682L26.6674 34.3456L26.9208 34.2814C29.0897 34.7052 31.2469 34.6573 33.3885 34.1061C35.1231 33.6595 36.8681 33.2446 38.5842 32.7362C39.4862 32.4694 40.3882 32.1201 41.2016 31.6552C45.1613 29.3922 46.3477 24.6252 43.8884 20.9312C43.7769 20.7632 43.3595 20.7978 43.0847 20.7382C42.8638 20.5996 42.6421 20.4618 42.4213 20.3233L42.4235 20.3226Z" fill="#856756"/>
<path d="M16.953 10.0658C16.5999 9.71723 16.198 9.50574 16.1507 9.23383C16.0606 8.7099 16.0443 8.10344 16.229 7.6193C16.5082 6.88683 17.1391 6.42038 17.9754 6.51913C18.2879 6.55597 18.8124 6.8581 18.8168 7.04969C18.8316 7.65615 18.7984 8.36061 18.4962 8.84991C18.1919 9.34215 17.5432 9.6229 16.953 10.0658Z" fill="#856756"/>
<path d="M28.6125 5.92529C29.8056 5.97466 30.4144 6.71229 30.4025 7.68056C30.3937 8.41893 29.8618 8.89643 29.1319 8.822C28.2092 8.72768 27.4542 7.96795 27.6847 7.14337C27.8295 6.6246 28.3769 6.21857 28.6125 5.92529Z" fill="#856756"/>
</svg>
