<svg width="680" height="169" viewBox="0 0 680 169" fill="none" xmlns="http://www.w3.org/2000/svg">
<g clip-path="url(#clip0_10_123)">
<path d="M67.5035 65.8688C62.865 69.4332 58.0446 70.7971 58.0446 70.7971C54.1701 71.8882 49.9682 71.8701 49.7863 71.8701C47.3852 71.8337 46.0574 71.5245 44.4566 72.3974C42.0373 73.7432 41.4189 76.5256 41.4007 76.6529C41.1278 77.9805 41.2552 79.7081 43.8018 83.8363C46.1483 87.6553 48.7859 90.6377 51.387 93.1474C53.6062 95.2751 56.0801 97.6574 59.9 99.9306C61.1551 100.676 62.2647 101.24 69.2133 104.059C78.1083 107.641 82.2556 109.242 82.2556 109.242C90.3684 112.37 91.4598 112.642 93.297 114.297C96.6076 117.243 98.1538 120.862 98.754 122.281C100.264 125.863 100.518 128.901 100.628 130.01C101.865 142.885 109.213 162.726 105.794 166.327C104.538 167.636 103.411 169.073 100.882 168.982C93.588 168.727 86.2938 168.127 79.036 167.382C62.5558 165.69 46.8759 161.508 33.0514 151.887C12.3147 137.466 1.96458 117.425 0.291091 92.4017C-0.982215 73.2886 1.69173 55.0664 12.242 38.8084C26.5758 16.7491 47.0032 3.69175 73.3425 0.927519C99.6999 -1.8549 125.202 1.45491 149.177 13.512C152.488 15.1851 156.253 15.9489 159.582 17.5856C160.582 18.0767 161.564 20.3317 161.273 21.4228C157.417 35.535 147.922 46.5373 140.409 58.6308C140.318 58.7581 138.772 60.6495 136.189 62.3953C132.569 64.8686 130.514 64.5958 130.059 64.5048C128.804 64.2866 127.967 63.6501 127.658 63.4319C123.183 60.1766 112.178 56.7577 109.959 56.1212C100.555 53.3934 92.1692 55.0301 89.4589 55.5938C89.4589 55.5938 82.1829 57.1032 75.4889 60.7768C75.3616 60.8495 74.1974 61.486 72.6694 62.3953C71.7418 62.9409 71.0687 63.341 70.2865 63.8502C68.8313 64.7958 67.8309 65.5778 67.4853 65.8506L67.5035 65.8688Z" fill="#341F12"/>
<path d="M109.504 95.6933C111.269 93.4019 112.833 91.5833 114.161 89.5829C115.525 87.5279 117.053 84.3818 117.162 80.3264C117.326 75.0707 114.761 71.1244 113.543 69.5059C114.325 69.7423 118.927 71.2517 121.128 75.98C123.147 80.3264 121.71 84.3818 121.255 85.6548C118.599 93.1837 110.414 95.4569 109.504 95.6933Z" fill="#341F12"/>
<path d="M458.445 104.841C458.809 104.186 459.209 103.586 459.482 102.913C463.756 92.4744 468.049 82.0358 472.233 71.5609C472.96 69.7605 473.743 68.7239 475.925 68.9785C484.875 70.0333 493.824 70.9607 502.774 71.9246C505.502 72.2155 505.866 72.6338 504.648 75.0525C498.245 87.8553 491.805 100.64 485.239 113.352C484.347 115.079 484.111 116.443 484.82 118.28C490.023 131.847 495.152 145.468 500.3 159.052C500.609 159.871 500.973 160.689 501.355 161.489C502.447 163.817 502.119 164.617 499.627 164.835C490.587 165.636 481.528 166.309 472.487 167.09C470.832 167.236 469.886 166.636 469.304 165.09C466.23 157.107 463.101 149.141 459.973 141.176C459.5 139.976 458.972 138.794 458.463 137.593C458.263 137.593 458.063 137.63 457.863 137.648C457.699 138.757 457.372 139.866 457.372 140.994C457.335 147.05 457.372 153.106 457.372 159.162C457.372 163.417 456.917 163.926 452.697 163.963C443.984 164.017 435.271 163.999 426.558 163.999C423.611 163.999 422.156 162.853 421.792 159.907C421.064 153.833 420.227 147.741 419.955 141.649C419.427 129.628 419.263 117.589 418.936 105.568C418.663 95.5296 418.354 85.4911 418.081 75.4526C417.972 71.7791 419.081 70.2697 422.719 70.2151C431.505 70.0878 440.291 70.2151 449.077 70.2151C450.259 70.2151 451.46 70.306 452.624 70.1424C454.679 69.8332 455.207 70.7061 455.134 72.6156C454.77 82.5996 455.407 92.5108 457.39 102.331C457.535 103.059 457.772 103.75 458.008 104.459C458.045 104.568 458.226 104.641 458.481 104.841H458.445Z" fill="#341F12"/>
<path d="M354.179 100.476C359.618 93.1837 365.075 85.5093 370.896 78.1259C377.535 69.7241 377.863 69.7241 388.395 69.7241C392.451 69.7241 396.526 69.7241 400.582 69.8514C404.347 69.9605 405.457 71.1607 405.439 74.8525C405.402 92.1289 405.366 109.405 405.293 126.7C405.239 136.957 405.111 147.232 404.984 157.488C404.984 158.67 404.911 159.853 404.729 161.016C404.038 165.854 403.656 166.472 398.854 166.745C394.234 167 389.559 166.709 384.92 166.509C384.284 166.472 383.302 165.599 383.138 164.945C382.665 162.962 382.283 160.889 382.283 158.852C382.283 153.76 382.556 148.687 382.683 143.595C382.719 142.34 382.81 141.067 382.665 139.83C382.574 139.03 382.101 138.284 381.792 137.52C381.119 138.011 380.264 138.375 379.791 139.03C374.279 146.522 368.622 153.924 363.42 161.635C360.837 165.472 357.508 167 353.215 167.054C347.831 167.127 342.428 167.163 337.026 167.036C332.424 166.927 330.805 165.163 330.75 160.071C330.623 147.45 330.605 134.829 330.605 122.208C330.605 106.332 330.678 90.4558 330.787 74.5797C330.787 73.343 331.132 71.8336 331.915 70.9789C332.697 70.1242 334.188 69.5058 335.371 69.4877C340.828 69.4513 346.303 69.6877 351.76 69.7786C353.652 69.815 354.452 70.8516 354.434 72.5792C354.361 78.8533 354.216 85.1092 354.143 91.3833C354.106 94.584 354.143 97.8028 354.143 100.513L354.179 100.476Z" fill="#341F12"/>
<path d="M256.48 167.036C253.079 167.036 249.677 167.036 246.276 167.036C243.365 167.036 242.437 166.545 241.728 163.617C240.873 160.034 240.2 156.397 239.855 152.724C238.254 135.993 236.708 119.244 235.343 102.477C234.652 94.0202 234.379 85.5275 234.015 77.0529C233.87 73.634 234.125 72.9429 237.508 72.1609C243.893 70.7061 250.332 69.324 256.826 68.5784C265.503 67.5963 274.234 67.6145 282.819 69.7241C298.681 73.634 310.905 82.1813 317.035 97.7483C321 107.805 321.946 118.316 318.254 128.737C314.652 138.903 307.14 145.359 297.153 148.796C291.805 150.632 286.185 151.687 280.618 152.815C278.254 153.287 276.853 153.96 277.035 156.67C277.162 158.725 276.871 160.798 276.853 162.871C276.853 163.981 276.617 164.872 276.035 165.454C275.343 166.145 274.379 166.218 273.943 166.236C271.924 166.363 265.393 166.69 256.48 167.036ZM291.86 125.936C291.642 124.645 291.569 123.317 291.187 122.063C289.786 117.334 283.802 114.861 278.654 115.807C278.09 115.916 277.29 116.989 277.271 117.625C277.162 123.808 277.181 129.973 277.181 136.157C277.181 137.411 277.763 138.084 279.072 137.993C285.348 137.63 292.096 133.138 291.842 125.936H291.86Z" fill="#341F12"/>
<path d="M189.45 82.0358C190.105 80.0899 190.759 78.1441 191.396 76.18C192.542 72.652 194.379 71.2517 198.036 71.088C206.003 70.7061 213.97 70.2878 221.937 69.9423C223.629 69.8695 225.357 69.9423 226.994 70.2514C230.123 70.8698 231.687 73.4703 230.887 76.5619C230.578 77.7621 230.068 78.9442 229.504 80.0536C215.262 108.114 200.982 136.138 186.776 164.217C185.266 167.218 183.265 168.654 179.809 168.473C171.623 168.036 163.42 167.854 155.234 167.509C151.505 167.363 149.268 164.344 150.578 160.707C152.269 156.07 154.379 151.578 156.417 147.086C160.146 138.812 163.929 130.537 167.767 122.317C169.295 119.044 169.168 116.025 167.494 112.806C161.419 100.985 155.453 89.1101 149.468 77.2348C146.448 71.2335 147.904 68.7602 154.579 68.9057C163.292 69.0876 172.005 69.4513 180.719 69.7422C183.556 69.8332 185.139 71.4699 186.012 73.9977C186.958 76.7074 187.94 79.3989 188.886 82.0904L189.413 82.0176L189.45 82.0358Z" fill="#341F12"/>
<path d="M633.16 68.6147C646.312 69.0148 659.973 69.4331 673.633 69.8514C674.452 69.8696 675.252 69.9423 676.053 70.0696C679.109 70.5606 680 71.4881 680 74.616C680 85.4729 680 96.3298 679.909 107.187C679.873 111.46 679.072 112.097 674.725 112.097C670.96 112.097 667.194 112.115 663.411 112.079C661.755 112.06 661.046 112.77 660.9 114.425C659.9 126.554 658.863 138.684 657.79 150.796C657.426 154.833 656.808 158.852 656.426 162.89C656.171 165.545 654.316 166.436 652.187 166.563C647.694 166.836 643.201 166.836 638.69 166.872C636.78 166.872 634.852 166.727 632.942 166.618C629.413 166.399 628.104 165.017 627.904 161.544C627.158 148.959 626.412 136.357 625.63 123.772C625.43 120.535 625.011 117.316 624.757 114.079C624.611 112.079 623.301 111.715 621.683 111.697C617.626 111.697 613.552 111.697 609.495 111.697C606.13 111.697 605.275 110.842 605.239 107.587C605.148 99.6942 605.002 91.7834 604.984 83.8908C604.984 79.9808 605.257 76.0709 605.275 72.161C605.275 70.2151 606.112 69.3604 608.058 69.3058C616.244 69.1058 624.447 68.8512 633.142 68.5966L633.16 68.6147Z" fill="#341F12"/>
<path d="M85.6571 67.9783C84.6385 66.0324 81.9827 65.0868 79.9455 65.6323C75.9254 66.7053 74.3065 73.5613 76.4712 75.7072C77.799 77.0348 80.5275 76.5074 82.1283 75.6709C84.8204 74.2888 87.0578 70.6698 85.6571 67.9783Z" fill="#341F12"/>
<path d="M548.959 72.5974C564.293 72.7429 573.715 73.0884 577.208 73.634C578.336 75.1616 578.918 75.9436 578.954 75.98C579.936 81.1447 581.61 89.1101 583.975 99.8578C586.267 110.315 587.922 118.262 588.94 123.736C592.033 138.884 594.707 152.615 596.98 164.926C596.908 165.727 596.417 166.218 595.507 166.399C595.216 166.472 594.816 166.509 594.307 166.509C593.652 166.545 593.27 166.563 593.161 166.563C580.227 166.381 572.806 166.218 570.878 166.072C570.478 166.036 569.568 165.963 568.149 165.854C567.021 165.781 566.13 165.672 565.475 165.526C565.111 165.236 564.475 164.435 563.565 163.126C563.456 160.544 563.347 158.907 563.238 158.216C563.092 157.488 562.874 156.779 562.583 156.088C561.637 156.015 560.509 156.379 559.2 157.179C557.526 158.198 556.453 158.78 555.98 158.925H554.179C552.833 157.616 551.614 157.07 550.523 157.288C550.414 157.725 550.214 158.834 549.923 160.616C549.704 161.962 549.432 163.035 549.104 163.835C547.976 164.417 546.339 164.799 544.193 164.981C540.628 165.308 532.151 165.326 518.781 165.035C518.236 164.999 517.653 164.963 517.035 164.926L516.38 164.435C516.089 164.217 515.889 164.053 515.78 163.944C515.307 163.508 515.107 163.035 515.18 162.526C515.18 162.308 515.653 160.216 516.598 156.252C516.38 157.088 519.727 143.849 526.658 116.534C527.713 113.042 528.222 111.424 528.186 111.679C528.513 109.751 529.15 107.241 530.096 104.131C531.223 100.385 531.933 97.8938 532.224 96.639C532.478 95.4751 533.006 93.711 533.806 91.3469C534.607 89.0191 535.134 87.2369 535.389 86.0003C537.899 78.2714 539.372 74.125 539.809 73.5431C541.628 72.9611 544.684 72.652 548.995 72.6156L548.959 72.5974ZM553.27 129.901C552.069 135.175 551.705 138.557 552.178 140.012C553.197 139.648 554.761 138.63 556.871 136.957C558.836 136.629 560.418 136.866 561.619 137.666C562.383 137.302 562.565 136.175 562.165 134.283C561.801 132.938 561.346 130.792 560.8 127.846C560.291 125.009 559.836 122.845 559.436 121.353C558.09 118.08 557.326 116.316 557.144 116.061C555.143 122.572 553.852 127.209 553.27 129.937V129.901Z" fill="#341F12"/>
</g>
<defs>
<clipPath id="clip0_10_123">
<rect width="680" height="169" fill="white"/>
</clipPath>
</defs>
</svg>
