<svg width="139" height="28" viewBox="0 0 139 28" fill="none" xmlns="http://www.w3.org/2000/svg">
<path fill-rule="evenodd" clip-rule="evenodd" d="M18.5344 17.9135L15.3292 14.0884L18.5317 10.2542V0.780865L0 0.783899L0.00548843 27.4384H18.5399L18.5344 17.9135ZM15.2002 18.5354V24.0896H3.33697V4.13581H15.1975L15.1947 9.68391L11.866 14.0884L15.2002 18.5384V18.5354ZM13.9873 18.9661V22.8428H4.55265L4.54716 14.7072H10.8287L13.9873 18.9661ZM9.35503 16.7669L10.7436 18.4899V20.4009H7.79906V16.7669H9.35777H9.35503ZM13.9845 5.37647V9.25013L10.8232 13.4635H4.54442V5.37647H13.9818H13.9845ZM10.7354 7.81533V9.73244L9.35229 11.4585H7.79632V7.81837H10.7354V7.81533ZM36.4295 13.9944L40.0189 0.780865H32.2226L30.2824 9.92052H29.4125L27.4586 0.780865H19.6678L23.2655 13.9883L19.3742 27.4384H27.1705L29.3741 18.0591H30.3263L32.5409 27.4445L40.3317 27.4384L36.4322 13.9944H36.4295ZM36.0398 24.0926H34.7445L32.143 14.6132H27.5519L24.9586 24.0926H23.6579L26.3829 14.0368L23.8692 4.12974H25.1645L27.5108 13.3695H32.1869L34.5195 4.12974H35.8202L33.3093 13.9944L36.0398 24.0926ZM59.8212 0.780865H52.0276V10.1632H49.0858L49.0803 0.780865H41.284L41.2922 17.6314H52.0303V19.9702H41.2922L41.295 27.4384H59.8266L59.8239 0.777832L59.8212 0.780865ZM56.4869 4.12671V24.0865H44.3218V22.8459H55.274V14.4676L44.6237 14.4737V4.13278H45.8339V13.2269H55.2712V4.12974H56.4842L56.4869 4.12671ZM79.3545 0.777832L61.3442 0.783899V8.91342H66.4073V27.4354H74.2887V8.91342H79.3517V0.777832H79.3545ZM76.3276 4.12671V5.37344H70.9599V24.0865H69.7497V5.37647H64.3793V4.12974H76.3276V4.12671ZM97.5075 20.3494H88.6766V17.1916H93.092V10.964H88.6766V7.8578H97.5075V0.777832H80.883L80.8857 27.4354L97.5075 27.4293V20.3494ZM85.4302 22.8368H94.4779V24.0805H84.2145V4.12671H94.4751V5.37041H85.4274L85.4247 13.4605L90.0569 13.4544V14.7012H85.4247V22.8368H85.4302ZM117.861 0.777832H111.193L106.519 11.8771V0.777832H99.6754L99.6809 27.4293H106.349L111.02 16.3271V27.4293L117.864 27.4263L117.861 0.777832ZM103.707 4.12671L103.712 22.7882H104.187L112.535 4.12671H115.043L115.051 24.0774H113.836L113.83 5.37041H113.353L105.01 24.0805H102.496V4.12671H103.709H103.707ZM138.995 0.777832H131.195L131.204 9.91748H128.259L128.254 0.780865H120.466L120.474 27.4293H128.267L128.262 18.0561H131.206L131.209 27.4293H139L138.995 0.777832ZM135.66 4.12974L135.666 24.0805H134.45V14.6102H125.015L125.021 24.0805H123.808L123.805 4.12671H125.015V13.3634H134.453V4.12671H135.663L135.66 4.12974Z" fill="#A59588" fill-opacity="0.36"/>
</svg>
